<?xml version="1.0" encoding="utf-8"?>
<!-- Generator: Adobe Illustrator 25.2.1, SVG Export Plug-In . SVG Version: 6.00 Build 0)  -->
<svg version="1.1" id="Livello_1" xmlns="http://www.w3.org/2000/svg" xmlns:xlink="http://www.w3.org/1999/xlink" x="0px" y="0px"
	 width="231px" height="52px" viewBox="0 0 231 52" style="enable-background:new 0 0 231 52;" xml:space="preserve">
<style type="text/css">
	.st0{fill:#20427D;}
	.st1{fill:#FFFFFF;}
	.st2{fill:#1C96C6;}
	.st3{fill:none;stroke:#20427D;stroke-width:1.046;}
	.st4{fill:none;stroke:#20427D;stroke-width:0.434;}
</style>
<g id="Raggruppa_127" transform="translate(-616.782 -368.383)">
	<g id="Raggruppa_127-2" transform="translate(616.782 371.721)">
		<path id="Tracciato_120" class="st0" d="M2.7,12.4c3.9,4.5,5.9,8.1,6.1,11c0.5-3.2,2.5-6.9,6.1-11c2.6-3,2.6-7.4,0-10.4
			C12-1.3,6.9-1.7,3.5,1.2C0.2,4-0.2,9,2.7,12.4C2.6,12.4,2.7,12.4,2.7,12.4"/>
	</g>
	<rect id="Rettangolo_104" x="681.2" y="368" class="st1" width="166.3" height="33.9"/>
	<rect id="Rettangolo_105" x="642.1" y="368" class="st1" width="35.3" height="33.9"/>
	<g id="Raggruppa_128" transform="translate(645.85 372.609)">
		<path id="Tracciato_121" class="st0" d="M10.9,14.3h4.4c1.7,0,3.1,0.3,3.1,2.2c0,2.1-2,2.6-3.4,2.6H9.9L10.9,14.3z M0.7,25.3h15
			c5.7,0,10.7-2.5,10.7-8.8c0.1-2.5-1.6-4.6-3.9-5.2v-0.1l0,0c3-0.6,5-3.3,4.8-6.3c0-3.8-2.1-5.7-7.8-5.7H6.1L0.7,25.3z M12.7,5.5
			h4.1c1.4,0,2.5,0.3,2.5,1.9s-1.6,2.1-2.9,2.1h-4.5L12.7,5.5z"/>
	</g>
	<path id="Tracciato_122" class="st2" d="M690.6,371.9h11.2l0.3,14h0.1l7.1-14h11.4l-5.6,26.1h-7.5l4-18h-0.1l-8.5,18h-6l-0.9-18
		H696l-3.6,18h-7.5L690.6,371.9z"/>
	<path id="Tracciato_123" class="st2" d="M724.4,371.9H746l-1.3,6.7h-13.5l-0.7,3.3H743l-1.3,6.2h-12.6l-0.7,3.3h13.8l-1.4,6.7H719
		L724.4,371.9z"/>
	<path id="Tracciato_124" class="st2" d="M753.5,378.5h-7.2l1.4-6.7h22.5l-1.4,6.7h-7.2l-4,19.4h-8L753.5,378.5z"/>
	<path id="Tracciato_125" class="st2" d="M772.5,371.9H794l-1.4,6.7h-13.5l-0.7,3.3H791l-1.3,6.2h-12.6l-0.7,3.3h13.8l-1.4,6.7H767
		L772.5,371.9z"/>
	<g id="Raggruppa_129" transform="translate(641.605 368.906)">
		<path id="Tracciato_126" class="st2" d="M162.5,9.2h4.3c2.1,0,2.7,1.2,2.7,2.3c0,1.6-1.2,2.9-3.9,2.9h-4.2L162.5,9.2z M150.5,29
			h7.9l1.9-9.1h3.5c2.2,0,3.3,1,3.3,2.4c0,1.3-0.4,2.9-0.4,4.2c-0.1,0.9,0,1.7,0.3,2.6h7.7c-0.7-1.5-0.4-4.2-0.4-6.7
			s-0.3-4.7-2.7-5.3V17c3.6-0.4,6.3-3.6,6.1-7.2c0-5.5-3.7-6.8-8.5-6.8H156L150.5,29z"/>
		<path id="Tracciato_127" class="st2" d="M193.8,10.8c0.1-0.8-0.2-1.7-0.9-2.2c-0.7-0.4-1.5-0.6-2.3-0.6c-1.3,0-3.1,0.4-3.1,2.1
			c0,2,3.9,2.1,6.5,3c4.5,1.6,6.1,4.1,6.1,7.2c0,6.3-6.1,9.2-11.8,9.2c-6,0-11.4-2.7-11.1-9.4h7.8c-0.1,1.1,0.3,2.2,1,3
			c0.9,0.6,1.9,0.8,3,0.7c1.6,0,3.5-0.8,3.5-2.5c0-1.9-2.7-2.2-6.3-3.4c-3.2-1.1-6.2-2.7-6.2-7.1c0-5.9,5.7-8.6,11-8.6
			c5.6,0,10.6,2.1,10.4,8.5L193.8,10.8z"/>
		<path id="Tracciato_128" class="st3" d="M39.7-0.8h166v33.5h-166C39.7,32.7,39.7-0.8,39.7-0.8z M0.7-0.7H36v33.5H0.7V-0.7z"/>
		<path id="Tracciato_129" class="st0" d="M12.4,48.1V40h1.2v1.1c0.3-0.4,0.6-0.7,1-1c0.4-0.2,0.9-0.4,1.4-0.4c0.5,0,1,0.1,1.5,0.4
			c0.4,0.2,0.7,0.6,0.8,1c0.5-0.9,1.5-1.4,2.5-1.4c0.7,0,1.4,0.2,1.9,0.7c0.5,0.6,0.7,1.3,0.6,2.1v5.6H22V43c0-0.4,0-0.8-0.1-1.2
			c-0.1-0.2-0.3-0.4-0.5-0.6C21.2,41,20.9,41,20.6,41c-0.5,0-1,0.2-1.4,0.6c-0.4,0.5-0.6,1.2-0.6,1.8v4.7h-1.4v-5.3
			c0-0.5-0.1-1-0.3-1.4c-0.3-0.3-0.7-0.5-1.1-0.5S15,41,14.7,41.2s-0.6,0.5-0.7,0.9c-0.2,0.5-0.2,1.1-0.2,1.7V48L12.4,48.1z"/>
		<path id="Tracciato_130" class="st0" d="M29.8,43.3h4.5c0-0.6-0.2-1.1-0.5-1.5c-0.4-0.5-1-0.8-1.7-0.8c-0.6,0-1.2,0.2-1.6,0.6
			C30.1,42,29.8,42.6,29.8,43.3 M34.3,45.5l1.4,0.2c-0.2,0.8-0.6,1.4-1.2,1.9c-1.6,1-3.7,0.9-5.1-0.4c-0.7-0.8-1.1-1.9-1-3.1
			c-0.1-1.2,0.3-2.3,1.1-3.2c0.7-0.8,1.7-1.2,2.7-1.1c1,0,2,0.4,2.7,1.1c0.7,0.9,1.1,2,1,3.1c0,0.1,0,0.2,0,0.4h-6
			c0,0.8,0.3,1.5,0.8,2c0.4,0.5,1.1,0.7,1.7,0.7c0.5,0,0.9-0.1,1.3-0.4C33.9,46.4,34.2,46,34.3,45.5"/>
		<path id="Tracciato_131" class="st0" d="M43.9,46.9l0.2,1.2c-0.3,0.1-0.7,0.1-1,0.1c-0.4,0-0.8-0.1-1.2-0.2
			c-0.3-0.1-0.5-0.4-0.6-0.6c-0.1-0.5-0.2-1.1-0.2-1.6v-4.7h-1V40h1v-2l1.4-0.8V40h1.4v1.1h-1.4v4.7c0,0.3,0,0.5,0.1,0.8
			c0,0.1,0.1,0.2,0.2,0.3c0.1,0.1,0.3,0.1,0.5,0.1C43.5,46.9,43.7,46.9,43.9,46.9"/>
		<path id="Tracciato_132" class="st0" d="M49.7,43.3h4.5c0-0.6-0.2-1.1-0.5-1.5c-0.4-0.5-1-0.8-1.7-0.8c-0.6,0-1.2,0.2-1.6,0.6
			C50,42,49.8,42.6,49.7,43.3 M54.2,45.5l1.4,0.2c-0.2,0.8-0.6,1.4-1.2,1.9c-1.6,1-3.7,0.9-5.1-0.4c-0.7-0.8-1.1-1.9-1-3.1
			c-0.1-1.2,0.3-2.3,1.1-3.2c0.7-0.8,1.7-1.2,2.7-1.1c1,0,2,0.4,2.7,1.1c0.7,0.9,1.1,2,1,3.1c0,0.1,0,0.2,0,0.4h-6
			c0,0.8,0.3,1.5,0.8,2c0.4,0.5,1.1,0.7,1.7,0.7c0.5,0,0.9-0.1,1.3-0.4C53.8,46.4,54.1,46,54.2,45.5"/>
		<path id="Tracciato_133" class="st0" d="M60.8,48.1V40H62v1.2c0.2-0.4,0.5-0.8,0.9-1.1c0.3-0.2,0.6-0.3,0.9-0.3
			c0.5,0,1,0.2,1.4,0.4l-0.5,1.3c-0.3-0.2-0.6-0.3-1-0.3c-0.3,0-0.6,0.1-0.8,0.3s-0.4,0.5-0.5,0.8c-0.2,0.5-0.2,1.1-0.2,1.6v4.2
			L60.8,48.1z"/>
	</g>
	<path id="Tracciato_134" class="st0" d="M711,417h1.4v-8.1H711V417z M711,407.4h1.4v-1.6H711V407.4z"/>
	<g id="Raggruppa_130" transform="translate(717.148 409.478)">
		<path id="Tracciato_135" class="st0" d="M0.7,7.5v-8.1H2v1.2c0.6-0.9,1.5-1.4,2.6-1.3c0.5,0,0.9,0.1,1.3,0.3
			C6.3-0.3,6.6,0,6.8,0.3C7,0.6,7.2,1,7.2,1.3c0.1,0.4,0.1,0.9,0.1,1.3v5H5.9v-5c0-0.4,0-0.8-0.2-1.3c0-0.2-0.2-0.5-0.5-0.6
			c-0.3-0.2-0.6-0.3-1-0.2C3.7,0.4,3.2,0.6,2.7,1C2.2,1.6,2,2.3,2.1,3.1v4.4H0.7z"/>
		<path id="Tracciato_136" class="st0" d="M13.7,3.3c-0.1,0.8,0.2,1.6,0.6,2.3c0.8,0.9,2.1,1,2.9,0.2c0.1-0.1,0.2-0.1,0.2-0.2
			C18,5,18.2,4.2,18.2,3.4c0.1-0.8-0.2-1.6-0.7-2.2c-0.4-0.5-1-0.8-1.6-0.8s-1.2,0.3-1.6,0.7C13.9,1.8,13.7,2.5,13.7,3.3 M12.6,8.2
			l1.3,0.2c0,0.4,0.2,0.7,0.5,0.9c0.4,0.3,0.9,0.4,1.4,0.4c0.5,0,1-0.1,1.5-0.4C17.6,9,17.9,8.7,18,8.2c0.1-0.6,0.1-1.2,0.1-1.8
			c-0.5,0.7-1.4,1.1-2.2,1.1c-1,0.1-2-0.4-2.6-1.2c-0.6-0.8-0.9-1.9-0.9-2.9c0-0.7,0.1-1.5,0.4-2.1C13,0.7,13.5,0.2,14-0.2
			c0.6-0.4,1.2-0.5,1.9-0.5c0.9,0,1.8,0.4,2.4,1.2v-1h1.3v7c0.1,0.9-0.1,1.8-0.4,2.7c-0.3,0.5-0.7,1-1.2,1.2
			c-0.6,0.3-1.3,0.5-2.1,0.5c-0.8,0-1.7-0.2-2.3-0.7C12.8,9.7,12.5,9,12.6,8.2"/>
		<path id="Tracciato_137" class="st0" d="M32.2,5.1l1.4-0.2c0,0.5,0.3,0.9,0.6,1.3c0.4,0.3,0.9,0.5,1.5,0.4c0.5,0,1-0.1,1.4-0.4
			c0.3-0.2,0.5-0.5,0.5-0.9c0-0.3-0.1-0.6-0.4-0.7c-0.4-0.2-0.9-0.4-1.4-0.5c-0.7-0.2-1.4-0.4-2.1-0.7c-0.7-0.3-1.2-1.1-1.2-1.9
			c0-0.3,0.1-0.7,0.2-1c0.2-0.3,0.4-0.6,0.7-0.8s0.6-0.3,0.9-0.4c0.4-0.1,0.8-0.2,1.2-0.2c0.6,0,1.1,0.1,1.7,0.3
			c0.4,0.1,0.8,0.4,1.1,0.7c0.3,0.4,0.4,0.8,0.5,1.3l-1.3,0.2c0-0.4-0.2-0.7-0.5-1c-0.4-0.3-0.8-0.4-1.2-0.4c-0.5,0-0.9,0.1-1.4,0.3
			C34.2,0.7,34,0.9,34,1.2c0,0.2,0.1,0.3,0.2,0.5c0.1,0.2,0.3,0.3,0.5,0.4c0.1,0.1,0.5,0.2,1.2,0.4s1.4,0.4,2,0.6
			c0.4,0.2,0.7,0.4,0.9,0.7C38.9,4.3,39,4.7,39,5.2s-0.1,0.9-0.4,1.3c-0.3,0.4-0.7,0.7-1.2,0.9c-0.5,0.2-1.1,0.3-1.7,0.3
			C34.8,7.8,34,7.5,33.3,7C32.7,6.6,32.3,5.9,32.2,5.1"/>
		<path id="Tracciato_138" class="st0" d="M44.9,3.5c-0.1,0.8,0.2,1.7,0.7,2.3c0.8,0.9,2.3,1,3.2,0.2c0.1,0,0.1-0.1,0.2-0.2
			c0.5-0.7,0.7-1.5,0.7-2.4c0.1-0.8-0.2-1.6-0.7-2.3c-0.8-0.9-2.3-1-3.2-0.2C45.7,1,45.7,1,45.6,1.1C45.1,1.8,44.8,2.6,44.9,3.5
			 M43.5,3.5c-0.1-1.2,0.4-2.5,1.3-3.3c0.7-0.6,1.6-0.9,2.5-0.9c1,0,2,0.4,2.7,1.1c0.7,0.8,1.1,1.9,1.1,3c0,0.8-0.1,1.7-0.5,2.5
			c-0.3,0.6-0.8,1.1-1.4,1.4c-0.6,0.3-1.3,0.5-2,0.5c-1,0-2-0.4-2.8-1.1C43.8,5.8,43.4,4.6,43.5,3.5"/>
	</g>
	<rect id="Rettangolo_106" x="773.2" y="405.8" class="st0" width="1.4" height="11.2"/>
	<g id="Raggruppa_131" transform="translate(779.362 406.83)">
		<path id="Tracciato_139" class="st0" d="M6.1,10.2V9c-0.6,0.9-1.5,1.4-2.6,1.4c-0.5,0-0.9-0.1-1.3-0.3s-0.7-0.4-1-0.7
			C1,9.1,0.9,8.7,0.8,8.4C0.7,8,0.7,7.5,0.7,7.1v-5h1.4v4.5c0,0.5,0,1,0.1,1.5c0.1,0.3,0.3,0.6,0.5,0.8c0.3,0.2,0.7,0.3,1,0.3
			c0.4,0,0.8-0.1,1.2-0.3C5.3,8.7,5.6,8.4,5.7,8C5.9,7.5,6,7,5.9,6.4V2.1h1.4v8.1L6.1,10.2z"/>
		<path id="Tracciato_140" class="st0" d="M15.9,8.9l0.2,1.2c-0.3,0.1-0.7,0.1-1,0.1c-0.4,0-0.8-0.1-1.2-0.2
			c-0.3-0.1-0.5-0.4-0.6-0.6c-0.1-0.5-0.2-1.1-0.2-1.6V3.1h-1v-1h1v-2l1.4-0.8v2.8h1.4v1.1h-1.4v4.7c0,0.3,0,0.5,0.1,0.8
			c0,0.1,0.1,0.2,0.2,0.3c0.2,0,0.4,0,0.5,0C15.5,9,15.7,9,15.9,8.9"/>
	</g>
	<path id="Tracciato_141" class="st0" d="M800.1,417h1.4v-8.1h-1.4V417z M800.1,407.4h1.4v-1.6h-1.4V407.4z"/>
	<g id="Raggruppa_132" transform="translate(617.088 375.347)">
		<path id="Tracciato_142" class="st0" d="M190.7,37.6c-0.1,0.8,0.2,1.7,0.7,2.3c0.8,0.9,2.3,1,3.2,0.2c0.1-0.1,0.2-0.1,0.2-0.2
			c0.5-0.7,0.7-1.5,0.7-2.4c0.1-0.8-0.2-1.6-0.7-2.3c-0.8-0.9-2.3-1-3.2-0.2c-0.1,0.1-0.1,0.1-0.2,0.2
			C190.9,36,190.7,36.8,190.7,37.6 M189.3,37.6c-0.1-1.2,0.4-2.5,1.3-3.3c0.7-0.6,1.6-0.9,2.5-0.9c1,0,2,0.4,2.7,1.1
			c0.7,0.8,1.1,1.9,1.1,3c0,0.8-0.1,1.7-0.5,2.5c-0.3,0.6-0.8,1.1-1.4,1.4c-0.6,0.3-1.3,0.5-2,0.5c-1,0-2-0.4-2.8-1.1
			C189.6,39.9,189.3,38.8,189.3,37.6"/>
		<path id="Tracciato_143" class="st0" d="M201.9,41.7v-8.1h1.2v1.2c0.6-0.9,1.5-1.4,2.6-1.3c0.5,0,0.9,0.1,1.3,0.3
			c0.4,0.1,0.7,0.4,0.9,0.7s0.4,0.7,0.4,1c0.1,0.4,0.1,0.9,0.1,1.3v5H207v-4.9c0-0.4,0-0.8-0.2-1.3c-0.1-0.3-0.3-0.5-0.6-0.7
			s-0.6-0.3-1-0.2c-0.6,0-1.1,0.2-1.5,0.6c-0.5,0.6-0.7,1.4-0.6,2.1v4.4L201.9,41.7z"/>
		<path id="Tracciato_144" class="st0" d="M213.5,39.2l1.4-0.2c0,0.5,0.3,0.9,0.6,1.3c0.4,0.3,0.9,0.5,1.5,0.4c0.5,0,1-0.1,1.4-0.4
			c0.3-0.2,0.5-0.5,0.5-0.9c0-0.3-0.1-0.6-0.4-0.7c-0.4-0.2-0.9-0.4-1.4-0.5c-0.7-0.2-1.4-0.4-2.1-0.7c-0.7-0.3-1.2-1.1-1.2-1.9
			c0-0.3,0.1-0.7,0.2-1c0.2-0.3,0.4-0.6,0.7-0.8s0.6-0.3,0.9-0.4c0.4-0.1,0.8-0.2,1.2-0.2c0.6,0,1.1,0.1,1.7,0.3
			c0.4,0.1,0.8,0.4,1.1,0.7c0.3,0.4,0.4,0.8,0.5,1.3l-1.3,0.2c0-0.4-0.2-0.7-0.5-1c-0.4-0.3-0.8-0.4-1.2-0.4c-0.5,0-0.9,0.1-1.4,0.3
			c-0.2,0.2-0.4,0.4-0.4,0.7c0,0.2,0.1,0.3,0.2,0.5c0.1,0.2,0.3,0.3,0.5,0.4c0.1,0.1,0.5,0.2,1.2,0.4s1.4,0.4,2,0.6
			c0.4,0.2,0.7,0.4,0.9,0.7s0.3,0.8,0.3,1.2c0,0.5-0.1,0.9-0.4,1.3c-0.3,0.4-0.7,0.7-1.2,0.9s-1.1,0.3-1.7,0.3
			c-0.9,0.1-1.7-0.2-2.4-0.7C214,40.7,213.6,40,213.5,39.2"/>
		<path id="Tracciato_145" class="st2" d="M13.8,9.7c-3.3-4-5.1-7.4-5.3-10.1C8,2.6,6.3,6,3.2,9.7c3.3,4,5.1,7.4,5.3,10.1
			C8.9,16.9,10.7,13.5,13.8,9.7"/>
		<path id="Tracciato_146" class="st4" d="M14.4,10.1c-3.7-4.4-5.7-8-5.9-10.9C8,2.4,6.1,6,2.6,10.1c-2.5,3-2.5,7.3,0,10.2
			c2.7,3.2,7.6,3.7,10.8,0.9l0.1-0.1C16.8,18.3,17.1,13.4,14.4,10.1"/>
	</g>
</g>
</svg>
