<?xml version="1.0" encoding="utf-8"?>
<!-- Generator: Adobe Illustrator 25.2.0, SVG Export Plug-In . SVG Version: 6.00 Build 0)  -->
<svg version="1.1" id="Livello_1" xmlns="http://www.w3.org/2000/svg" xmlns:xlink="http://www.w3.org/1999/xlink" x="0px" y="0px"
	 width="230px" height="52px" viewBox="0 0 230 52" style="enable-background:new 0 0 230 52;" xml:space="preserve">
<style type="text/css">
	.st0{fill:#FFFFFF;}
	.st1{fill:none;}
	.st2{fill:#1C96C6;}
	.st3{fill:none;stroke:#FFFFFF;stroke-width:1.046;}
	.st4{fill:none;stroke:#FFFFFF;stroke-width:0.434;}
</style>
<g id="Raggruppa_298" transform="translate(0 -103.755)">
	<g id="Raggruppa_127" transform="translate(0 108.335)">
		<path id="Tracciato_120" class="st0" d="M1.9,11.6c3.9,4.5,5.9,8.1,6.1,11c0.5-3.2,2.5-6.9,6.1-11c2.6-3,2.6-7.4,0-10.4
			c-2.9-3.3-8-3.7-11.3-0.8C-0.5,3.2-0.9,8.2,1.9,11.6C1.9,11.6,1.9,11.6,1.9,11.6"/>
	</g>
	<rect id="Rettangolo_104" x="63.7" y="103.8" class="st1" width="166.3" height="33.9"/>
	<rect id="Rettangolo_105" x="24.5" y="103.8" class="st1" width="35.3" height="33.9"/>
	<g id="Raggruppa_128" transform="translate(41.901 109.616)">
		<path id="Tracciato_121" class="st0" d="M-2.7,13.1h4.4c1.7,0,3.1,0.3,3.1,2.2c0,2.1-2,2.6-3.4,2.6h-5.2L-2.7,13.1z M-12.8,24.1
			h15c5.7,0,10.7-2.5,10.7-8.8c0.1-2.5-1.6-4.6-3.9-5.2v-0.1h0c3.1-0.8,4.8-3,4.8-6.3C13.8,0,11.7-2,6-2H-7.4L-12.8,24.1z M-0.9,4.3
			h4.1c1.4,0,2.5,0.3,2.5,1.9c0,1.6-1.6,2.1-2.9,2.1h-4.5L-0.9,4.3z"/>
	</g>
	<path id="Tracciato_122" class="st2" d="M73.1,107.7h11.2l0.3,14h0.1l7.1-14h11.4l-5.6,26.1h-7.5l4-18h-0.1l-8.6,18h-6l-0.9-18
		h-0.1l-3.6,18h-7.5L73.1,107.7z"/>
	<path id="Tracciato_123" class="st2" d="M106.9,107.7h21.6l-1.3,6.7h-13.5l-0.7,3.3h12.5l-1.3,6.2h-12.6l-0.7,3.3h13.8l-1.4,6.7
		h-21.9L106.9,107.7z"/>
	<path id="Tracciato_124" class="st2" d="M136,114.3h-7.2l1.4-6.7h22.5l-1.4,6.7H144l-4,19.4h-8L136,114.3z"/>
	<path id="Tracciato_125" class="st2" d="M154.9,107.7h21.6l-1.4,6.7h-13.5l-0.7,3.3h12.5l-1.3,6.2h-12.6l-0.7,3.3h13.8l-1.4,6.7
		h-21.9L154.9,107.7z"/>
	<path id="Tracciato_126" class="st2" d="M186.6,113.9h4.3c2.1,0,2.7,1.2,2.7,2.3c0,1.6-1.2,2.9-3.9,2.9h-4.2L186.6,113.9z
		 M174.5,133.8h7.9l1.9-9.1h3.5c2.2,0,3.3,1,3.3,2.4c0,1.3-0.4,2.9-0.4,4.2c-0.1,0.9,0,1.7,0.3,2.6h7.7c-0.7-1.5-0.4-4.2-0.4-6.7
		c0-2.5-0.3-4.7-2.7-5.3v-0.1c3.6-0.4,6.3-3.6,6.1-7.2c0-5.5-3.7-6.8-8.5-6.8H180L174.5,133.8z"/>
	<path id="Tracciato_127" class="st2" d="M217.9,115.6c0.1-0.8-0.2-1.7-0.9-2.2c-0.7-0.4-1.5-0.6-2.3-0.6c-1.3,0-3.1,0.4-3.1,2.1
		c0,2,3.9,2.1,6.5,3c4.5,1.6,6.1,4.1,6.1,7.2c0,6.3-6.1,9.2-11.8,9.2c-6,0-11.4-2.7-11.1-9.4h7.8c-0.1,1.1,0.3,2.2,1,3
		c0.7,0.6,1.6,0.7,3,0.7c1.6,0,3.5-0.8,3.5-2.5c0-1.9-2.7-2.2-6.3-3.4c-3.2-1.1-6.2-2.7-6.2-7.1c0-5.9,5.7-8.6,11-8.6
		c5.6,0,10.6,2.1,10.4,8.5L217.9,115.6z"/>
	<path id="Tracciato_128" class="st3" d="M63.8,103.9h166v33.5h-166V103.9z M24.8,104h35.2v33.5H24.8V104z"/>
	<path id="Tracciato_129" class="st0" d="M36.5,152.8v-8.1h1.2v1.1c0.3-0.4,0.6-0.7,1-1c0.4-0.2,0.9-0.4,1.4-0.4
		c0.5,0,1,0.1,1.5,0.4c0.4,0.2,0.7,0.6,0.8,1c0.5-0.9,1.5-1.4,2.5-1.4c0.7,0,1.4,0.2,1.9,0.7c0.5,0.6,0.7,1.3,0.6,2.1v5.6h-1.4v-5.1
		c0-0.4,0-0.8-0.1-1.2c-0.1-0.2-0.3-0.4-0.5-0.6c-0.2-0.2-0.5-0.2-0.8-0.2c-0.5,0-1,0.2-1.4,0.6c-0.4,0.5-0.6,1.2-0.6,1.8v4.7h-1.4
		v-5.3c0-0.5-0.1-1-0.3-1.4c-0.3-0.3-0.7-0.5-1.1-0.5c-0.4,0-0.8,0.1-1.1,0.3c-0.3,0.2-0.6,0.5-0.7,0.9c-0.2,0.5-0.2,1.1-0.2,1.7
		v4.2L36.5,152.8z"/>
	<path id="Tracciato_130" class="st0" d="M53.9,148h4.5c0-0.6-0.2-1.1-0.5-1.5c-0.4-0.5-1-0.8-1.7-0.8c-0.6,0-1.2,0.2-1.6,0.6
		C54.2,146.7,53.9,147.3,53.9,148 M58.4,150.2l1.4,0.2c-0.2,0.8-0.6,1.4-1.2,1.9c-1.6,1-3.7,0.9-5.1-0.4c-0.7-0.8-1.1-1.9-1-3.1
		c-0.1-1.2,0.3-2.3,1.1-3.2c0.7-0.8,1.7-1.2,2.7-1.1c1,0,2,0.4,2.7,1.1c0.7,0.9,1.1,2,1,3.1c0,0.1,0,0.2,0,0.4h-6
		c0,0.8,0.3,1.5,0.8,2c0.4,0.5,1.1,0.7,1.7,0.7c0.5,0,0.9-0.1,1.3-0.4C58,151.1,58.3,150.7,58.4,150.2"/>
	<path id="Tracciato_131" class="st0" d="M68,151.6l0.2,1.2c-0.3,0.1-0.7,0.1-1,0.1c-0.4,0-0.8-0.1-1.2-0.2
		c-0.3-0.1-0.5-0.4-0.6-0.6c-0.1-0.5-0.2-1.1-0.2-1.6v-4.7h-1v-1.1h1v-2l1.4-0.8v2.8H68v1.1h-1.4v4.7c0,0.3,0,0.5,0.1,0.8
		c0,0.1,0.1,0.2,0.2,0.3c0.1,0.1,0.3,0.1,0.5,0.1C67.6,151.6,67.8,151.6,68,151.6"/>
	<path id="Tracciato_132" class="st0" d="M73.8,148h4.5c0-0.6-0.2-1.1-0.5-1.5c-0.4-0.5-1-0.8-1.7-0.8c-0.6,0-1.2,0.2-1.6,0.6
		C74.1,146.7,73.8,147.3,73.8,148 M78.3,150.2l1.4,0.2c-0.2,0.8-0.6,1.4-1.2,1.9c-1.6,1-3.7,0.9-5.1-0.4c-0.7-0.8-1.1-1.9-1-3.1
		c-0.1-1.2,0.3-2.3,1.1-3.2c0.7-0.8,1.7-1.2,2.7-1.1c1,0,2,0.4,2.7,1.1c0.7,0.9,1.1,2,1,3.1c0,0.1,0,0.2,0,0.4h-6
		c0,0.8,0.3,1.5,0.8,2c0.4,0.5,1.1,0.7,1.7,0.7c0.5,0,0.9-0.1,1.3-0.4C77.9,151.1,78.2,150.7,78.3,150.2"/>
	<path id="Tracciato_133" class="st0" d="M84.9,152.8v-8.1h1.2v1.2c0.2-0.4,0.5-0.8,0.9-1.1c0.3-0.2,0.6-0.3,0.9-0.3
		c0.5,0,1,0.2,1.4,0.4l-0.5,1.3c-0.3-0.2-0.7-0.3-1-0.3c-0.3,0-0.6,0.1-0.8,0.3c-0.2,0.2-0.4,0.5-0.5,0.8c-0.2,0.5-0.2,1.1-0.2,1.6
		v4.2L84.9,152.8z"/>
	<path id="Tracciato_134" class="st0" d="M93.5,152.8h1.4v-8.1h-1.4V152.8z M93.5,143.2h1.4v-1.6h-1.4V143.2z"/>
	<g id="Raggruppa_130" transform="translate(144.678 162.762)">
		<path id="Tracciato_135" class="st0" d="M-44.3-10v-8.1h1.2v1.2c0.6-0.9,1.5-1.4,2.6-1.3c0.5,0,0.9,0.1,1.3,0.3
			c0.4,0.1,0.7,0.4,0.9,0.7c0.2,0.3,0.4,0.7,0.4,1c0.1,0.4,0.1,0.9,0.1,1.3v5h-1.4v-4.9c0-0.4,0-0.8-0.2-1.3
			c-0.1-0.3-0.3-0.5-0.6-0.7c-0.3-0.2-0.6-0.3-1-0.2c-0.6,0-1.1,0.2-1.5,0.6c-0.5,0.6-0.7,1.4-0.6,2.1v4.4L-44.3-10z"/>
		<path id="Tracciato_136" class="st0" d="M-31.3-14.2c-0.1,0.8,0.2,1.6,0.6,2.3c0.8,0.9,2.1,1,2.9,0.2c0.1-0.1,0.2-0.1,0.2-0.2
			c0.5-0.7,0.7-1.5,0.6-2.3c0.1-0.8-0.2-1.6-0.7-2.2c-0.4-0.5-1-0.8-1.6-0.8c-0.6,0-1.2,0.3-1.6,0.7C-31.2-15.7-31.4-14.9-31.3-14.2
			 M-32.5-9.3l1.3,0.2c0,0.4,0.2,0.7,0.5,0.9c0.4,0.3,0.9,0.4,1.4,0.4c0.5,0,1-0.1,1.5-0.4c0.4-0.3,0.6-0.6,0.7-1.1
			C-27-9.8-27-10.4-27-11c-0.5,0.7-1.4,1.1-2.2,1.1c-1,0-2-0.4-2.6-1.2c-0.6-0.8-0.9-1.9-0.9-2.9c0-0.7,0.1-1.5,0.4-2.1
			c0.2-0.6,0.7-1.1,1.2-1.5c0.6-0.4,1.2-0.5,1.9-0.5c0.9,0,1.8,0.4,2.4,1.2v-1h1.3v7c0.1,0.9-0.1,1.8-0.4,2.7
			c-0.3,0.5-0.7,1-1.2,1.2c-0.6,0.3-1.3,0.5-2.1,0.5c-0.8,0-1.7-0.2-2.3-0.7C-32.2-7.8-32.5-8.5-32.5-9.3"/>
		<path id="Tracciato_137" class="st0" d="M-12.8-12.4l1.4-0.2c0,0.5,0.3,0.9,0.6,1.2c0.4,0.3,0.9,0.5,1.5,0.4c0.5,0,1-0.1,1.4-0.4
			c0.3-0.2,0.5-0.5,0.5-0.9c0-0.3-0.1-0.6-0.4-0.7c-0.4-0.2-0.9-0.4-1.4-0.5c-0.7-0.2-1.4-0.4-2.1-0.7c-0.7-0.3-1.2-1.1-1.2-1.9
			c0-0.3,0.1-0.7,0.2-1c0.2-0.3,0.4-0.6,0.7-0.8c0.3-0.2,0.6-0.3,0.9-0.4c0.4-0.1,0.8-0.2,1.2-0.2c0.6,0,1.1,0.1,1.7,0.3
			c0.4,0.1,0.8,0.4,1.1,0.7c0.3,0.4,0.4,0.8,0.5,1.3l-1.3,0.2c0-0.4-0.2-0.7-0.5-1c-0.4-0.3-0.8-0.4-1.2-0.4c-0.5,0-0.9,0.1-1.4,0.3
			c-0.2,0.2-0.4,0.4-0.4,0.7c0,0.2,0.1,0.3,0.2,0.5c0.1,0.2,0.3,0.3,0.5,0.4c0.1,0.1,0.5,0.2,1.2,0.4c0.7,0.2,1.4,0.4,2,0.6
			c0.4,0.2,0.7,0.4,0.9,0.7c0.2,0.3,0.3,0.8,0.3,1.2c0,0.5-0.1,0.9-0.4,1.3c-0.3,0.4-0.7,0.7-1.2,0.9c-0.5,0.2-1.1,0.3-1.7,0.3
			c-0.9,0.1-1.7-0.2-2.4-0.7C-12.3-10.9-12.7-11.6-12.8-12.4"/>
		<path id="Tracciato_138" class="st0" d="M-0.1-14c-0.1,0.8,0.2,1.7,0.7,2.3c0.8,0.9,2.3,1,3.2,0.2c0.1-0.1,0.2-0.1,0.2-0.2
			c0.5-0.7,0.7-1.5,0.7-2.4c0.1-0.8-0.2-1.6-0.7-2.3c-0.8-0.9-2.3-1-3.2-0.2c-0.1,0.1-0.1,0.1-0.2,0.2C0-15.7-0.2-14.8-0.1-14
			 M-1.5-14c-0.1-1.2,0.4-2.5,1.2-3.3c0.7-0.6,1.6-0.9,2.5-0.9c1,0,2,0.4,2.7,1.1c0.7,0.8,1.1,1.9,1.1,3c0,0.8-0.1,1.7-0.5,2.5
			c-0.3,0.6-0.8,1.1-1.4,1.4c-0.6,0.3-1.3,0.5-2,0.5c-1,0-2-0.4-2.8-1.1C-1.3-11.7-1.6-12.9-1.5-14"/>
	</g>
	<rect id="Rettangolo_106" x="155.7" y="141.6" class="st0" width="1.4" height="11.2"/>
	<g id="Raggruppa_131" transform="translate(234.359 158.945)">
		<path id="Tracciato_139" class="st0" d="M-66.4-6.1v-1.2C-67-6.5-68-5.9-69-6c-0.5,0-0.9-0.1-1.3-0.3c-0.4-0.1-0.7-0.4-0.9-0.7
			c-0.2-0.3-0.4-0.7-0.4-1c-0.1-0.4-0.1-0.9-0.1-1.3v-5h1.4v4.5c0,0.5,0,1,0.1,1.5c0.1,0.3,0.3,0.6,0.5,0.8c0.3,0.2,0.7,0.3,1,0.3
			c0.4,0,0.8-0.1,1.2-0.3c0.3-0.2,0.6-0.5,0.8-0.9c0.2-0.5,0.2-1,0.2-1.6v-4.3h1.4v8.1L-66.4-6.1z"/>
		<path id="Tracciato_140" class="st0" d="M-56.6-7.4l0.2,1.2c-0.3,0.1-0.7,0.1-1,0.1c-0.4,0-0.8-0.1-1.2-0.2
			c-0.3-0.1-0.5-0.4-0.6-0.6c-0.1-0.5-0.2-1.1-0.2-1.6v-4.7h-1v-1.1h1v-2l1.4-0.8v2.8h1.4v1.1H-58v4.7c0,0.3,0,0.5,0.1,0.8
			c0,0.1,0.1,0.2,0.2,0.3c0.1,0.1,0.3,0.1,0.5,0.1C-57-7.3-56.8-7.3-56.6-7.4"/>
	</g>
	<path id="Tracciato_141" class="st0" d="M182.5,152.8h1.4v-8.1h-1.4V152.8z M182.5,143.2h1.4v-1.6h-1.4V143.2z"/>
	<path id="Tracciato_142" class="st0" d="M190.3,148.8c-0.1,0.8,0.2,1.7,0.7,2.3c0.8,0.9,2.3,1,3.2,0.2c0.1-0.1,0.2-0.1,0.2-0.2
		c0.5-0.7,0.7-1.5,0.7-2.4c0.1-0.8-0.2-1.6-0.7-2.3c-0.8-0.9-2.3-1-3.2-0.2c-0.1,0.1-0.1,0.1-0.2,0.2
		C190.5,147.1,190.3,147.9,190.3,148.8 M188.9,148.8c-0.1-1.2,0.4-2.5,1.2-3.3c0.7-0.6,1.6-0.9,2.5-0.9c1,0,2,0.4,2.7,1.1
		c0.7,0.8,1.1,1.9,1.1,3c0,0.8-0.1,1.7-0.5,2.5c-0.3,0.6-0.8,1.1-1.4,1.4c-0.6,0.3-1.3,0.5-2,0.5c-1,0-2-0.4-2.8-1.1
		C189.2,151,188.8,149.9,188.9,148.8"/>
	<path id="Tracciato_143" class="st0" d="M201.5,152.8v-8.1h1.2v1.2c0.6-0.9,1.5-1.4,2.6-1.3c0.5,0,0.9,0.1,1.3,0.3
		c0.4,0.1,0.7,0.4,0.9,0.7c0.2,0.3,0.4,0.7,0.4,1c0.1,0.4,0.1,0.9,0.1,1.3v5h-1.4v-4.9c0-0.4,0-0.8-0.2-1.3
		c-0.1-0.3-0.3-0.5-0.6-0.7c-0.3-0.2-0.6-0.3-1-0.2c-0.6,0-1.1,0.2-1.5,0.6c-0.5,0.6-0.7,1.4-0.6,2.1v4.4L201.5,152.8z"/>
	<path id="Tracciato_144" class="st0" d="M213.1,150.4l1.4-0.2c0,0.5,0.3,0.9,0.6,1.2c0.4,0.3,0.9,0.5,1.5,0.4c0.5,0,1-0.1,1.4-0.4
		c0.3-0.2,0.5-0.5,0.5-0.9c0-0.3-0.1-0.6-0.4-0.7c-0.4-0.2-0.9-0.4-1.4-0.5c-0.7-0.2-1.4-0.4-2.1-0.7c-0.7-0.3-1.2-1.1-1.2-1.9
		c0-0.3,0.1-0.7,0.2-1c0.2-0.3,0.4-0.6,0.7-0.8c0.3-0.2,0.6-0.3,0.9-0.4c0.4-0.1,0.8-0.2,1.2-0.2c0.6,0,1.1,0.1,1.7,0.3
		c0.4,0.1,0.8,0.4,1.1,0.7c0.3,0.4,0.4,0.8,0.5,1.3l-1.3,0.2c0-0.4-0.2-0.7-0.5-1c-0.4-0.3-0.8-0.4-1.2-0.4c-0.5,0-0.9,0.1-1.4,0.3
		c-0.2,0.2-0.4,0.4-0.4,0.7c0,0.2,0.1,0.3,0.2,0.5c0.1,0.2,0.3,0.3,0.5,0.4c0.1,0.1,0.5,0.2,1.2,0.4c0.7,0.2,1.4,0.4,2,0.6
		c0.4,0.2,0.7,0.4,0.9,0.7c0.2,0.3,0.3,0.8,0.3,1.2c0,0.5-0.1,0.9-0.4,1.3c-0.3,0.4-0.7,0.7-1.2,0.9c-0.5,0.2-1.1,0.3-1.7,0.3
		c-0.9,0.1-1.7-0.2-2.4-0.7C213.6,151.8,213.2,151.2,213.1,150.4"/>
	<path id="Tracciato_145" class="st2" d="M13.3,120.9c-3.3-4-5.1-7.4-5.3-10.1c-0.4,3-2.2,6.4-5.3,10.2c3.3,4,5.1,7.4,5.3,10.1
		C8.5,128.1,10.3,124.6,13.3,120.9"/>
	<path id="Tracciato_146" class="st4" d="M13.9,121.3c-3.7-4.4-5.7-8-5.9-10.9c-0.5,3.1-2.4,6.8-5.9,10.9c-2.5,3-2.5,7.3,0,10.2
		c2.7,3.2,7.6,3.7,10.8,0.9c0,0,0.1-0.1,0.1-0.1C16.3,129.5,16.7,124.6,13.9,121.3"/>
</g>
</svg>
