<?xml version="1.0" encoding="utf-8"?>
<!-- Generator: Adobe Illustrator 25.2.3, SVG Export Plug-In . SVG Version: 6.00 Build 0)  -->
<svg version="1.1" id="Livello_1" xmlns="http://www.w3.org/2000/svg" xmlns:xlink="http://www.w3.org/1999/xlink" x="0px" y="0px"
	 width="800px" height="307px" viewBox="0 0 800 307" style="enable-background:new 0 0 800 307;" xml:space="preserve">
<style type="text/css">
	.st0{fill:#FFFFFF;}
	.st1{fill:none;stroke:#FFFFFF;stroke-miterlimit:10;}
	.st2{fill:#1D427E;stroke:#FFFFFF;stroke-miterlimit:10;}
	.st3{fill:#1D427E;}
	.st4{fill:none;stroke:#1D427E;stroke-width:1.5;stroke-miterlimit:10;}
	.st5{fill:#1E95C5;stroke:#1E95C5;stroke-width:1.5;stroke-miterlimit:10;}
	.st6{fill:#18437E;}
	.st7{fill:#1E95C5;}
</style>
<g>
	<path class="st0" d="M136.5,121.9v104.4H749c0,0,43.3-3.5,50.9-64.6c0,0,4.2-53.9-63.7-68.8c0,0-4.5-76.1-84.8-91.9
		c0,0-65.9-4.2-93.1,44.3c0,0-69.8-23.8-64.4,43.1c0,0-39.3-15.4-47,31.6L136.5,121.9z"/>
	<path class="st1" d="M132.6,117.9v112.4h603.6l0.4,0c60.2,0,63.4-64.9,63.5-65.6c0-60-53.6-70.4-63.7-71.8
		C725.5,6,649.2,0.6,648.4,0.6c-58.1-2.5-87.1,33.6-92.5,41.1c-20.3-7.5-38.3-5.4-50.8,6c-14.7,13.4-15.3,29.6-14.8,36.3
		c-17.5-4.2-29.3,4.3-29.8,4.7c-14.2,9.7-14.8,27.4-15.1,29.1H132.6z M736.1,226.2H460.3 M460.3,226.2h275.9H136.5V121.9l310.8,0.5
		c0,0,2.3,0,2.3-2.3c0.3-0.5-1.3-18.2,13.2-28.1c0.1-0.1,12-8.6,29.2-3.3c0.7,0.2,1.4,0,1.9-0.4c0.5-0.5,0.8-1.2,0.6-1.9
		c-0.2-0.8-3.8-20.2,13.2-35.7c11.7-10.6,28.8-12.3,48.2-4.7c0.9,0.4,1.9,0,2.4-0.8c0.3-0.4,27.8-43.3,89.9-40.6
		c0.7,0,74.7,5.3,84.3,90.3c0.1,0.9,0.9,1.7,1.8,1.8c2.5,0.2,61.7,5.8,61.7,67.9c-0.1,2.5-3,61.7-59.5,61.7"/>
	<path class="st2" d="M0,230.2h116.8V117.9H0V230.2z M4,121.9h108.8v104.4H4V121.9z"/>
	<rect x="2" y="119.9" class="st0" width="112.8" height="108.4"/>
	<path class="st3" d="M85.9,170.6c10-2.7,15.3-9.6,15.3-20.1c0-12-6.8-18.3-24.9-18.3H33.5l-17.3,83.4h47.9c18.2,0,34.3-7.9,34.3-28
		c0-7.7-4.9-15.1-12.6-16.7v-0.2H85.9z M61.8,195.7H45.4l3.3-15.5h14.1c5.4,0,9.9,0.9,9.9,7.1C72.7,194,66.4,195.7,61.8,195.7z
		 M66.3,164.6H51.8l2.6-12.6h13.2c4.6,0,7.9,0.9,7.9,6C75.5,163.1,70.4,164.6,66.3,164.6z"/>
	<path class="st3" d="M0,230.2h116.8V117.9H0V230.2z M4,121.9h108.8v104.4H4V121.9z"/>
	<g>
		<path class="st3" d="M548.8,110.5l0.1,0.2c-1.2,3.6-3.1,6.5-5.7,8.6c-2.6,2.1-6,3.2-10.3,3.2c-4.2,0-7.6-1.6-10.2-4.7
			c-2.6-3.1-3.4-6.9-2.3-11.3l1.5-6.6c1.1-4.9,3.2-8.7,6.2-11.5c3.1-2.7,6.8-4.1,11.3-4.1c4.1,0,7.4,1.2,9.8,3.5
			c2.4,2.3,3.4,5.3,2.8,9l-0.1,0.1h-5.4c0.2-2.7-0.4-4.8-1.6-6.4c-1.3-1.6-3.4-2.3-6.2-2.3c-2.7,0-5,1.1-7.1,3.3
			c-2.1,2.2-3.5,4.9-4.2,8.3l-1.5,6.7c-0.8,3.5-0.5,6.4,0.9,8.7c1.4,2.2,3.6,3.4,6.6,3.4c2.6,0,4.6-0.6,6.1-1.9
			c1.5-1.3,2.8-3.3,3.8-6H548.8z"/>
		<path class="st3" d="M561.6,117.9H580l-0.9,4h-24l8.4-37.1h5.6L561.6,117.9z"/>
		<path class="st3" d="M618,106.9c-1.1,4.9-3.3,8.7-6.7,11.4c-3.3,2.7-7.4,4.1-12.1,4.1c-4.3,0-7.8-1.6-10.3-4.7
			c-2.6-3.1-3.3-6.9-2.3-11.3l1.5-6.6c1.1-4.9,3.2-8.7,6.5-11.4c3.2-2.8,7.1-4.1,11.7-4.1c4.5,0,8,1.6,10.7,4.7
			c2.7,3.1,3.5,6.9,2.5,11.3L618,106.9z M613.9,100.2c0.8-3.6,0.4-6.4-1.2-8.6c-1.6-2.2-4.1-3.2-7.4-3.2c-2.8,0-5.2,1.1-7.4,3.2
			c-2.1,2.1-3.6,4.8-4.3,8.2l-1.5,6.7c-0.8,3.6-0.5,6.5,1,8.7c1.5,2.2,3.8,3.2,7,3.2c3,0,5.6-1,7.8-3.1c2.2-2.1,3.7-4.9,4.5-8.3
			L613.9,100.2z"/>
		<path class="st3" d="M661.3,84.8l-5.7,25.2c-1,4.3-3.1,7.5-6.3,9.5c-3.2,2-7.1,3-11.7,3c-4.1,0-7.3-1.1-9.6-3.3
			c-2.3-2.2-3-5.3-2.1-9.2l5.7-25.2h5.6l-5.7,25.1c-0.7,3-0.4,5.2,0.9,6.5c1.3,1.4,3.4,2,6.1,2c2.7,0,5.1-0.7,7.3-2.2
			c2.2-1.5,3.6-3.6,4.2-6.4l5.7-25.1H661.3z"/>
		<path class="st3" d="M663.2,121.9l8.4-37.1h11c4.9,0,8.8,1.6,11.7,4.7c2.9,3.1,3.8,7,2.8,11.6l-1.1,5c-1.2,5.1-3.4,9-6.8,11.7
			c-3.3,2.7-7.6,4.1-12.8,4.1H663.2z M676.3,88.7l-6.6,29.2h7.6c3.3,0,6.1-1.1,8.4-3.3c2.3-2.2,3.9-5,4.7-8.6l1.2-5.1
			c0.8-3.6,0.3-6.6-1.5-8.9c-1.8-2.3-4.6-3.4-8.3-3.4H676.3z"/>
	</g>
	<path class="st4" d="M511.6,48.1"/>
	<g>
		<path class="st5" d="M189.5,137.9L197,195l0.4,0.1l35.8-57.2h24.7l-19.1,77.6h-18.9l5.7-23.1l9.8-32.6l-0.3-0.1l-36.6,55.9h-12.7
			l-8.9-55.6h-0.4l-6.2,32.5l-5.7,23.1h-18.9l19.1-77.6H189.5z"/>
		<path class="st5" d="M319.1,181.4h-36.2l-5.4,22.1h42.5l-3,12h-61.4l19.1-77.6h61.2l-3,12h-42.3l-4.8,19.5H322L319.1,181.4z"/>
		<path class="st5" d="M410.4,149.9h-24.6l-16.1,65.6h-18.9l16.1-65.6h-24.5l3-12h68L410.4,149.9z"/>
		<path class="st5" d="M467.9,181.4h-36.2l-5.4,22.1h42.5l-3,12h-61.4l19.1-77.6h61.2l-3,12h-42.3l-4.8,19.5h36.2L467.9,181.4z"/>
		<path class="st5" d="M503.4,184.5l-7.6,31h-19l19.1-77.6h33.9c9.5,0,16.8,2,21.9,6.1c5.1,4.1,6.7,9.7,5,16.8
			c-1.1,4.3-3.2,7.9-6.2,10.7s-7.2,5.1-12.4,6.8c4.7,1.5,7.9,3.8,9.5,6.9c1.7,3.2,2,6.9,1,11.4l-1.4,5.7c-0.6,2.2-0.8,4.5-0.7,6.8
			c0.1,2.3,0.8,4.1,2.2,5.2l-0.3,1.1h-19.5c-1.4-1.1-2-3-1.8-5.6c0.2-2.6,0.6-5.2,1.2-7.6l1.3-5.5c1-4.1,0.6-7.2-1.1-9.2
			c-1.7-2-4.7-3.1-9-3.1H503.4z M506.4,172.5h14.7c4.4,0,8-1,11-2.9c2.9-1.9,4.9-4.6,5.8-8.1c0.9-3.8,0.5-6.6-1.3-8.6
			c-1.8-2-5-3-9.6-3h-15L506.4,172.5z"/>
		<path class="st5" d="M580,215.5h-18.9l19.1-77.6h18.9L580,215.5z"/>
		<path class="st5" d="M670.3,215.5h-18.9l-21.6-51.6h-0.4l-12.7,51.6h-18.9l19.1-77.6h18.9l21.5,51.5h0.4l12.7-51.5h18.9
			L670.3,215.5z"/>
		<path class="st5" d="M758.3,204.9c-3.5,3.1-8.3,5.8-14.5,8.2c-6.2,2.4-13.6,3.6-22.2,3.6c-10.2,0-18.2-3-24-9
			c-5.8-6-7.6-13.6-5.3-22.8l4-16.2c2.4-10,7.6-17.8,15.6-23.4c7.9-5.6,17.2-8.4,27.9-8.4c10.3,0,17.9,2.3,22.8,6.9
			c4.9,4.6,6.9,10.7,5.9,18.1l-0.2,0.3h-17.8c0.3-4.3-0.6-7.6-2.5-9.9c-1.9-2.3-5.5-3.5-10.6-3.5c-4.9,0-9.4,1.9-13.7,5.6
			s-7.1,8.4-8.5,14.1l-4,16.3c-1.6,6.2-1.1,11.1,1.3,14.6c2.4,3.5,6.5,5.2,12.2,5.2c3.7,0,6.9-0.4,9.5-1.1c2.7-0.8,4.8-1.7,6.3-2.7
			l3.5-14h-14.9l2.6-10.8h33.8L758.3,204.9z"/>
	</g>
	<path class="st3" d="M739.4,237.9"/>
	<path class="st3" d="M132.6,117.9v112.4h603.6l0.4,0c60.2,0,63.4-64.9,63.5-65.6c0-60-53.6-70.4-63.7-71.8
		C725.5,6,649.2,0.6,648.4,0.6c-58.1-2.5-87.1,33.6-92.5,41.1c-20.3-7.5-38.3-5.4-50.8,6c-14.7,13.4-15.3,29.6-14.8,36.3
		c-17.5-4.2-29.3,4.3-29.8,4.7c-14.2,9.7-14.8,27.4-15.1,29.1 M736.1,226.2H460.3 M460.3,226.2h275.9H136.5V121.9l310.8,0.5
		c0,0,2.3,0,2.3-2.3c0.3-0.5-1.3-18.2,13.2-28.1c0.1-0.1,12-8.6,29.2-3.3c0.7,0.2,1.4,0,1.9-0.4c0.5-0.5,0.8-1.2,0.6-1.9
		c-0.2-0.8-3.8-20.2,13.2-35.7c11.7-10.6,28.8-12.3,48.2-4.7c0.9,0.4,1.9,0,2.4-0.8c0.3-0.4,27.8-43.3,89.9-40.6
		c0.7,0,74.7,5.3,84.3,90.3c0.1,0.9,0.9,1.7,1.8,1.8c2.5,0.2,61.7,5.8,61.7,67.9c-0.1,2.5-3,61.7-59.5,61.7"/>
</g>
<g>
	<g>
		<path class="st3" d="M400.7,273.7v8.8H399v-21.2h7.3c2.2,0,3.9,0.6,5.2,1.7c1.2,1.1,1.8,2.6,1.8,4.5c0,1.9-0.6,3.4-1.8,4.5
			c-1.2,1.1-2.9,1.7-5.2,1.7H400.7z M400.7,272.2h5.6c1.7,0,3.1-0.4,3.9-1.3s1.3-2,1.3-3.4c0-1.4-0.4-2.5-1.3-3.4s-2.2-1.3-3.9-1.3
			h-5.6V272.2z"/>
		<path class="st3" d="M417.3,274.4c0-2.3,0.6-4.2,1.9-5.7c1.3-1.5,3-2.2,5.1-2.2c2.1,0,3.8,0.7,5.1,2.2c1.3,1.5,1.9,3.4,1.9,5.7
			v0.5c0,2.3-0.6,4.2-1.9,5.7s-2.9,2.2-5,2.2c-2.1,0-3.8-0.7-5.1-2.2s-1.9-3.4-1.9-5.7V274.4z M419,274.9c0,1.8,0.5,3.4,1.4,4.6
			c0.9,1.2,2.2,1.9,3.9,1.9c1.6,0,2.9-0.6,3.8-1.9c0.9-1.2,1.4-2.8,1.4-4.6v-0.5c0-1.8-0.5-3.3-1.4-4.6c-0.9-1.2-2.2-1.9-3.8-1.9
			s-2.9,0.6-3.8,1.9c-0.9,1.3-1.4,2.8-1.4,4.6V274.9z"/>
		<path class="st3" d="M439.7,277.4l0.6,2.8h0.1l0.7-2.8l3.3-10.6h1.5l3.3,10.6l0.8,2.9h0.1l0.7-2.9l2.9-10.6h1.8l-4.6,15.8h-1.5
			l-3.5-10.8l-0.7-2.7h-0.1l-0.7,2.7l-3.4,10.8h-1.5l-4.6-15.8h1.8L439.7,277.4z"/>
		<path class="st3" d="M466.3,282.8c-2,0-3.6-0.7-4.9-2.2s-2-3.3-2-5.5v-0.8c0-2.3,0.6-4.1,1.9-5.6c1.3-1.5,2.9-2.2,4.7-2.2
			c1.9,0,3.5,0.6,4.6,1.8c1.1,1.2,1.7,2.9,1.7,4.9v1.5h-11.1v0.4c0,1.8,0.5,3.3,1.4,4.4s2.2,1.8,3.7,1.8c1.1,0,2-0.2,2.8-0.5
			s1.4-0.7,2-1.3l0.7,1.2c-0.6,0.6-1.3,1.1-2.2,1.5C468.7,282.6,467.6,282.8,466.3,282.8z M466.1,268c-1.3,0-2.4,0.5-3.2,1.5
			c-0.9,1-1.4,2.2-1.5,3.7l0,0.1h9.2v-0.4c0-1.4-0.4-2.5-1.2-3.4C468.6,268.4,467.5,268,466.1,268z"/>
		<path class="st3" d="M484.5,268.3l-1.3-0.1c-1.1,0-2,0.3-2.7,0.9c-0.7,0.6-1.2,1.5-1.5,2.5v10.9h-1.7v-15.8h1.5l0.2,2.6v0.2
			c0.5-1,1.1-1.7,1.8-2.3s1.7-0.8,2.7-0.8c0.2,0,0.4,0,0.6,0.1s0.4,0.1,0.5,0.1L484.5,268.3z"/>
		<path class="st3" d="M494.5,282.8c-2,0-3.6-0.7-4.9-2.2s-2-3.3-2-5.5v-0.8c0-2.3,0.6-4.1,1.9-5.6c1.3-1.5,2.9-2.2,4.7-2.2
			c1.9,0,3.5,0.6,4.6,1.8c1.1,1.2,1.7,2.9,1.7,4.9v1.5h-11.1v0.4c0,1.8,0.5,3.3,1.4,4.4s2.2,1.8,3.7,1.8c1.1,0,2-0.2,2.8-0.5
			s1.4-0.7,2-1.3l0.7,1.2c-0.6,0.6-1.3,1.1-2.2,1.5C496.9,282.6,495.8,282.8,494.5,282.8z M494.3,268c-1.3,0-2.4,0.5-3.2,1.5
			s-1.4,2.2-1.5,3.7l0,0.1h9.2v-0.4c0-1.4-0.4-2.5-1.2-3.4C496.8,268.4,495.7,268,494.3,268z"/>
		<path class="st3" d="M504.8,274.8c0-2.5,0.5-4.5,1.6-6c1.1-1.5,2.5-2.3,4.4-2.3c1.1,0,2,0.2,2.9,0.7c0.8,0.5,1.5,1.1,2,2v-9.3h1.7
			v22.7h-1.5l-0.1-2.3c-0.5,0.8-1.2,1.5-2,1.9c-0.8,0.4-1.8,0.7-2.9,0.7c-1.9,0-3.4-0.7-4.4-2.1c-1.1-1.4-1.6-3.3-1.6-5.6V274.8z
			 M506.5,275.1c0,1.9,0.4,3.4,1.1,4.6c0.8,1.1,1.9,1.7,3.4,1.7c1.1,0,2.1-0.3,2.8-0.8c0.8-0.5,1.3-1.2,1.8-2.1v-7.4
			c-0.4-0.9-1-1.7-1.7-2.2c-0.7-0.6-1.7-0.9-2.9-0.9c-1.5,0-2.7,0.6-3.5,1.9c-0.8,1.3-1.2,2.9-1.2,4.9V275.1z"/>
		<path class="st3" d="M532.8,282.5v-21.2h6.2c2.2,0,3.9,0.5,5.1,1.4c1.2,0.9,1.8,2.3,1.8,4.2c0,1.1-0.3,2-0.9,2.8
			c-0.6,0.8-1.5,1.4-2.5,1.7c1.3,0.2,2.3,0.8,3.1,1.8c0.8,1,1.2,2.1,1.2,3.4c0,1.9-0.6,3.3-1.8,4.4c-1.2,1-2.9,1.5-4.9,1.5H532.8z
			 M534.5,270.8h4.9c1.5,0,2.7-0.3,3.6-1c0.8-0.7,1.3-1.7,1.3-3c0-1.3-0.4-2.3-1.3-3c-0.9-0.7-2.2-1-3.9-1h-4.5V270.8z M534.5,272.3
			v8.7h5.6c1.6,0,2.8-0.4,3.7-1.2c0.9-0.8,1.3-1.8,1.3-3.2c0-1.3-0.4-2.3-1.2-3.1s-2-1.2-3.5-1.2H534.5z"/>
		<path class="st3" d="M556.7,278.3l0.6,1.9h0.1l4.8-13.4h2l-6.8,18.3c-0.4,1.1-0.9,2-1.6,2.7s-1.6,1.1-2.9,1.1
			c-0.2,0-0.5,0-0.7-0.1c-0.3,0-0.5-0.1-0.6-0.1l0.2-1.5c0.1,0,0.3,0,0.6,0.1c0.3,0,0.4,0,0.6,0c0.8,0,1.4-0.3,1.8-0.8
			c0.5-0.5,0.8-1.2,1.2-2.1l0.8-2.1l-6.1-15.5h1.9L556.7,278.3z"/>
	</g>
	<g>
		<g>
			<path class="st0" d="M586.7,281.8c1,1.2,2.4,1.9,4,2c1.5,0.1,3-0.4,4.2-1.4c2.4-2.1,2.7-5.8,0.6-8.3c-0.2-0.2-0.4-0.5-0.6-0.7
				c-2.2,2.8-3.5,5.3-3.8,7.4c-0.1-2-1.4-4.5-3.8-7.4c-0.2,0.2-0.4,0.5-0.6,0.7C584.8,276.2,584.8,279.7,586.7,281.8z"/>
			<path class="st6" d="M595.8,273.9c-0.2-0.3-0.4-0.5-0.6-0.8c0.2-0.2,0.4-0.5,0.6-0.7c2-2.2,2-5.8,0-8c-2.2-2.6-6.1-2.8-8.7-0.7
				c-2.6,2.2-2.9,6.1-0.7,8.6c0.2,0.3,0.4,0.5,0.6,0.7c-0.2,0.2-0.4,0.5-0.6,0.8c-2,2.3-2,5.9,0,8.2c1.1,1.3,2.6,2,4.2,2.2
				c0.2,0,0.3,0,0.5,0c1.5,0,2.9-0.5,4-1.5C597.7,280.4,598,276.5,595.8,273.9z M590.6,283.8c-1.5-0.1-2.9-0.8-4-2
				c-1.9-2.1-1.9-5.5,0-7.6c0.2-0.2,0.4-0.5,0.6-0.7c2.4,2.9,3.7,5.4,3.8,7.4c0.3-2.2,1.6-4.7,3.8-7.4c0.2,0.2,0.4,0.5,0.6,0.7
				c2.1,2.5,1.8,6.2-0.6,8.3C593.7,283.4,592.2,283.9,590.6,283.8z"/>
			<path class="st7" d="M595,273.2c-2.5-3-3.8-5.6-4-7.6c-0.3,2.2-1.7,4.8-4,7.6c2.5,3,3.8,5.6,4,7.6
				C591.4,278.6,592.7,276,595,273.2"/>
		</g>
		<g>
			<g>
				<rect x="633.8" y="260.5" class="st0" width="127.7" height="26"/>
				<rect x="603.8" y="260.6" class="st0" width="27.1" height="26"/>
				<polygon class="st7" points="667,263.5 683.5,263.5 682.5,268.7 672.1,268.7 671.6,271.2 681.2,271.2 680.2,275.9 670.6,275.9 
					670,278.4 680.6,278.4 679.6,283.6 662.8,283.6 				"/>
				<polygon class="st7" points="689.3,268.7 683.8,268.7 684.8,263.5 702.1,263.5 701,268.7 695.5,268.7 692.4,283.6 686.2,283.6 
									"/>
				<polygon class="st7" points="703.8,263.5 720.4,263.5 719.4,268.7 709,268.7 708.5,271.2 718.1,271.2 717.1,275.9 707.4,275.9 
					706.9,278.4 717.5,278.4 716.5,283.6 699.7,283.6 				"/>
				<path class="st7" d="M718.9,283.6h6.1l1.5-7h2.7c1.7,0,2.5,0.8,2.5,1.8c0,1-0.3,2.2-0.3,3.2c0,0.9,0,1.5,0.3,2h5.9
					c-0.5-1.2-0.3-3.2-0.3-5.1c0-1.9-0.3-3.6-2.1-4.1v-0.1c2.9-0.5,4.7-2.6,4.7-5.5c0-4.2-2.8-5.2-6.5-5.2H723L718.9,283.6
					 M728.2,268.3h3.3c1.6,0,2.1,1,2.1,1.7c0,1.2-1,2.2-3,2.2h-3.3L728.2,268.3z"/>
				<path class="st7" d="M752.2,269.6c0-0.8-0.3-1.3-0.7-1.7c-0.4-0.3-1.1-0.4-1.8-0.4c-1,0-2.4,0.3-2.4,1.6c0,1.5,3,1.6,5,2.3
					c3.5,1.2,4.7,3.1,4.7,5.5c0,4.8-4.7,7.1-9,7.1c-4.6,0-8.8-2.1-8.5-7.2h6c0,1.1,0.3,1.8,0.8,2.3c0.5,0.4,1.3,0.5,2.3,0.5
					c1.2,0,2.7-0.6,2.7-1.9c0-1.5-2.1-1.7-4.8-2.6c-2.4-0.8-4.8-2.1-4.8-5.4c0-4.5,4.4-6.6,8.4-6.6c4.3,0,8.1,1.6,8,6.5H752.2"/>
				<g>
					<polygon class="st7" points="641,263.5 649.6,263.5 649.9,274.3 649.9,274.3 655.4,263.5 664.2,263.5 659.9,283.6 654.2,283.6 
						657.3,269.7 657.2,269.7 650.7,283.6 646.1,283.6 645.4,269.7 645.3,269.7 642.5,283.6 636.8,283.6 					"/>
					<g>
						<path class="st3" d="M624,272.8c2.4-0.6,3.7-2.3,3.7-4.8c0-2.9-1.6-4.4-6-4.4h-10.3l-4.2,20h11.5c4.4,0,8.3-1.9,8.3-6.7
							C627,275,625.8,273.2,624,272.8L624,272.8L624,272.8z M618.2,278.8h-4l0.8-3.7h3.4c1.3,0,2.4,0.2,2.4,1.7
							C620.8,278.4,619.3,278.8,618.2,278.8z M619.2,271.3h-3.5l0.6-3h3.2c1.1,0,1.9,0.2,1.9,1.4C621.5,271,620.2,271.3,619.2,271.3
							z"/>
						<path class="st3" d="M603.3,287.1h28.1v-27h-28.1V287.1z M604.3,261h26.2v25.1h-26.2V261z"/>
						<path class="st3" d="M633.3,260v27H762v-27H633.3z M761,286.1H634.2V261H761V286.1z"/>
					</g>
				</g>
			</g>
			<g>
				<path class="st3" d="M619.4,291.8c-0.8,0-1.4,0.4-1.9,1.1c-0.1-0.3-0.3-0.6-0.6-0.8c-0.3-0.2-0.7-0.3-1.1-0.3
					c-0.4,0-0.8,0.1-1.1,0.3c-0.3,0.2-0.6,0.4-0.8,0.7V292h-0.9v6.2h1.1V295c0-0.6,0.1-1,0.2-1.3c0.1-0.3,0.3-0.5,0.5-0.7
					c0.3-0.2,0.5-0.2,0.8-0.2c0.4,0,0.7,0.1,0.8,0.4c0.2,0.2,0.3,0.6,0.3,1.1v4h1.1v-3.6c0-0.6,0.1-1.1,0.4-1.4
					c0.3-0.3,0.7-0.4,1.1-0.4c0.2,0,0.5,0.1,0.6,0.2c0.2,0.1,0.3,0.3,0.4,0.4c0.1,0.2,0.1,0.5,0.1,0.9v3.9h1v-4.3
					c0-0.7-0.2-1.2-0.5-1.6C620.5,292,620,291.8,619.4,291.8z"/>
				<path class="st3" d="M628,291.8c-0.9,0-1.6,0.3-2.1,0.9c-0.5,0.6-0.8,1.4-0.8,2.4c0,1,0.3,1.8,0.8,2.4c0.5,0.6,1.3,0.8,2.2,0.8
					c0.7,0,1.3-0.2,1.8-0.5c0.5-0.4,0.8-0.8,1-1.5l-1.1-0.1c-0.2,0.4-0.4,0.8-0.7,1c-0.3,0.2-0.6,0.3-1,0.3c-0.5,0-1-0.2-1.3-0.5
					c-0.3-0.4-0.5-0.9-0.6-1.6h4.6c0-0.1,0-0.2,0-0.3c0-1-0.3-1.8-0.8-2.4C629.6,292.1,628.9,291.8,628,291.8z M626.3,294.5
					c0-0.5,0.2-1,0.5-1.3c0.3-0.3,0.7-0.5,1.2-0.5c0.5,0,1,0.2,1.3,0.6c0.2,0.3,0.4,0.7,0.4,1.2H626.3z"/>
				<path class="st3" d="M636.6,297.3c-0.2,0-0.3,0-0.4-0.1c-0.1-0.1-0.1-0.1-0.2-0.2c0-0.1-0.1-0.3-0.1-0.6v-3.6h1.1V292H636v-2.2
					l-1,0.6v1.5h-0.8v0.8h0.8v3.6c0,0.6,0,1,0.1,1.2c0.1,0.2,0.2,0.4,0.4,0.5c0.2,0.1,0.5,0.2,0.9,0.2c0.2,0,0.5,0,0.8-0.1l-0.2-0.9
					C636.9,297.3,636.7,297.3,636.6,297.3z"/>
				<path class="st3" d="M643.3,291.8c-0.9,0-1.6,0.3-2.1,0.9c-0.5,0.6-0.8,1.4-0.8,2.4c0,1,0.3,1.8,0.8,2.4
					c0.5,0.6,1.3,0.8,2.2,0.8c0.7,0,1.3-0.2,1.8-0.5c0.5-0.4,0.8-0.8,1-1.5l-1.1-0.1c-0.2,0.4-0.4,0.8-0.7,1c-0.3,0.2-0.6,0.3-1,0.3
					c-0.5,0-1-0.2-1.3-0.5c-0.3-0.4-0.5-0.9-0.6-1.6h4.6c0-0.1,0-0.2,0-0.3c0-1-0.3-1.8-0.8-2.4
					C644.8,292.1,644.2,291.8,643.3,291.8z M641.6,294.5c0-0.5,0.2-1,0.5-1.3c0.3-0.3,0.7-0.5,1.2-0.5c0.5,0,1,0.2,1.3,0.6
					c0.2,0.3,0.4,0.7,0.4,1.2H641.6z"/>
				<path class="st3" d="M651.7,292c-0.2,0.1-0.4,0.4-0.7,0.9V292h-0.9v6.2h1.1v-3.3c0-0.4,0.1-0.9,0.2-1.2c0.1-0.2,0.2-0.4,0.4-0.6
					c0.2-0.1,0.4-0.2,0.6-0.2c0.3,0,0.5,0.1,0.8,0.2l0.4-1c-0.4-0.2-0.7-0.3-1.1-0.3C652.1,291.8,651.9,291.9,651.7,292z"/>
				<rect x="656.7" y="289.6" class="st3" width="1.1" height="1.2"/>
				<rect x="656.7" y="292" class="st3" width="1.1" height="6.2"/>
				<path class="st3" d="M666.6,292.6c-0.2-0.2-0.4-0.4-0.7-0.5c-0.3-0.1-0.7-0.2-1-0.2c-0.9,0-1.5,0.3-2,1V292H662v6.2h1.1v-3.4
					c0-0.8,0.2-1.3,0.5-1.6c0.3-0.3,0.7-0.4,1.2-0.4c0.3,0,0.5,0.1,0.7,0.2c0.2,0.1,0.4,0.3,0.4,0.5c0.1,0.2,0.1,0.5,0.1,1v3.8h1.1
					v-3.8c0-0.5,0-0.8-0.1-1C666.9,293,666.8,292.8,666.6,292.6z"/>
				<path class="st3" d="M675.4,292.7c-0.5-0.6-1.1-0.9-1.8-0.9c-0.6,0-1,0.1-1.4,0.4c-0.4,0.3-0.7,0.7-0.9,1.2
					c-0.2,0.5-0.3,1-0.3,1.6c0,0.9,0.2,1.6,0.7,2.2c0.5,0.6,1.1,0.9,2,0.9c0.7,0,1.3-0.3,1.7-0.8c0,0.7,0,1.1-0.1,1.4
					c-0.1,0.4-0.3,0.6-0.5,0.8c-0.3,0.2-0.6,0.3-1.1,0.3c-0.5,0-0.8-0.1-1.1-0.3c-0.2-0.1-0.3-0.4-0.4-0.7l-1-0.2
					c0,0.7,0.2,1.2,0.7,1.5c0.5,0.3,1.1,0.5,1.8,0.5c0.6,0,1.2-0.1,1.6-0.4c0.4-0.2,0.7-0.6,0.9-1c0.2-0.4,0.3-1.1,0.3-2.1V292h-1
					V292.7z M674.9,296.8c-0.3,0.4-0.7,0.6-1.2,0.6c-0.5,0-0.9-0.2-1.2-0.6c-0.3-0.4-0.5-1-0.5-1.8c0-0.7,0.2-1.3,0.5-1.7
					s0.7-0.6,1.2-0.6c0.5,0,0.9,0.2,1.2,0.6c0.3,0.4,0.5,1,0.5,1.7C675.4,295.8,675.2,296.4,674.9,296.8z"/>
				<path class="st3" d="M690.3,294.9c-0.3-0.1-0.8-0.3-1.6-0.5c-0.5-0.1-0.8-0.2-0.9-0.3c-0.2-0.1-0.3-0.2-0.4-0.3
					c-0.1-0.1-0.1-0.2-0.1-0.4c0-0.2,0.1-0.4,0.3-0.6c0.2-0.2,0.6-0.2,1-0.2c0.4,0,0.7,0.1,1,0.3c0.2,0.2,0.4,0.4,0.4,0.7l1-0.1
					c-0.1-0.4-0.2-0.7-0.4-1c-0.2-0.2-0.4-0.4-0.8-0.6c-0.4-0.1-0.8-0.2-1.3-0.2c-0.3,0-0.6,0-0.9,0.1c-0.3,0.1-0.5,0.2-0.7,0.3
					c-0.2,0.2-0.4,0.4-0.5,0.6c-0.1,0.2-0.2,0.5-0.2,0.8c0,0.3,0.1,0.6,0.2,0.8c0.2,0.3,0.4,0.4,0.7,0.6c0.3,0.1,0.8,0.3,1.6,0.5
					c0.6,0.1,0.9,0.3,1.1,0.4c0.2,0.1,0.3,0.3,0.3,0.6c0,0.3-0.1,0.5-0.4,0.7c-0.2,0.2-0.6,0.3-1.1,0.3c-0.5,0-0.9-0.1-1.1-0.3
					c-0.3-0.2-0.4-0.5-0.5-1l-1,0.2c0.1,0.7,0.4,1.2,0.8,1.5c0.4,0.3,1,0.5,1.8,0.5c0.5,0,0.9-0.1,1.3-0.3c0.4-0.2,0.7-0.4,0.9-0.7
					c0.2-0.3,0.3-0.6,0.3-1c0-0.4-0.1-0.7-0.3-0.9C690.9,295.2,690.6,295,690.3,294.9z"/>
				<path class="st3" d="M697.7,291.8c-0.8,0-1.4,0.2-2,0.7c-0.6,0.6-1,1.4-1,2.6c0,1,0.3,1.9,0.8,2.4c0.5,0.6,1.2,0.8,2.1,0.8
					c0.5,0,1-0.1,1.5-0.4c0.5-0.3,0.8-0.6,1-1.1c0.2-0.5,0.4-1.1,0.4-1.9c0-1-0.3-1.8-0.8-2.3C699.2,292.1,698.6,291.8,697.7,291.8z
					 M699,296.9c-0.3,0.4-0.8,0.6-1.3,0.6c-0.5,0-1-0.2-1.3-0.6c-0.3-0.4-0.5-1-0.5-1.8c0-0.8,0.2-1.4,0.5-1.8
					c0.3-0.4,0.8-0.6,1.3-0.6c0.5,0,1,0.2,1.3,0.6c0.3,0.4,0.5,1,0.5,1.7C699.5,295.9,699.3,296.5,699,296.9z"/>
				<rect x="704.4" y="289.6" class="st3" width="1.1" height="8.6"/>
				<path class="st3" d="M713.7,295.3c0,0.5-0.1,0.9-0.2,1.2c-0.1,0.3-0.3,0.5-0.6,0.7c-0.3,0.2-0.6,0.2-0.9,0.2
					c-0.3,0-0.6-0.1-0.8-0.2c-0.2-0.2-0.4-0.4-0.4-0.7c0-0.2-0.1-0.6-0.1-1.1V292h-1.1v3.9c0,0.4,0,0.8,0.1,1
					c0.1,0.3,0.2,0.6,0.3,0.8c0.2,0.2,0.4,0.4,0.7,0.5c0.3,0.1,0.7,0.2,1,0.2c0.8,0,1.5-0.4,2-1.1v0.9h0.9V292h-1.1V295.3z"/>
				<path class="st3" d="M720.9,297.3c-0.2,0-0.3,0-0.4-0.1c-0.1-0.1-0.1-0.1-0.2-0.2c0-0.1-0.1-0.3-0.1-0.6v-3.6h1.1V292h-1.1v-2.2
					l-1,0.6v1.5h-0.8v0.8h0.8v3.6c0,0.6,0,1,0.1,1.2c0.1,0.2,0.2,0.4,0.4,0.5c0.2,0.1,0.5,0.2,0.9,0.2c0.2,0,0.5,0,0.8-0.1l-0.2-0.9
					C721.2,297.3,721,297.3,720.9,297.3z"/>
				<rect x="725" y="289.6" class="st3" width="1.1" height="1.2"/>
				<rect x="725" y="292" class="st3" width="1.1" height="6.2"/>
				<path class="st3" d="M732.8,291.8c-0.8,0-1.4,0.2-2,0.7c-0.6,0.6-1,1.4-1,2.6c0,1,0.3,1.9,0.8,2.4c0.5,0.6,1.2,0.8,2.1,0.8
					c0.5,0,1-0.1,1.5-0.4c0.5-0.3,0.8-0.6,1-1.1c0.2-0.5,0.4-1.1,0.4-1.9c0-1-0.3-1.8-0.8-2.3C734.4,292.1,733.7,291.8,732.8,291.8z
					 M734.2,296.9c-0.3,0.4-0.8,0.6-1.3,0.6c-0.5,0-1-0.2-1.3-0.6c-0.3-0.4-0.5-1-0.5-1.8c0-0.8,0.2-1.4,0.5-1.8
					c0.3-0.4,0.8-0.6,1.3-0.6c0.5,0,1,0.2,1.3,0.6c0.3,0.4,0.5,1,0.5,1.7C734.7,295.9,734.5,296.5,734.2,296.9z"/>
				<path class="st3" d="M744.3,292.6c-0.2-0.2-0.4-0.4-0.7-0.5c-0.3-0.1-0.7-0.2-1-0.2c-0.9,0-1.5,0.3-2,1V292h-0.9v6.2h1.1v-3.4
					c0-0.8,0.2-1.3,0.5-1.6c0.3-0.3,0.7-0.4,1.2-0.4c0.3,0,0.5,0.1,0.7,0.2c0.2,0.1,0.4,0.3,0.4,0.5c0.1,0.2,0.1,0.5,0.1,1v3.8h1.1
					v-3.8c0-0.5,0-0.8-0.1-1C744.6,293,744.4,292.8,744.3,292.6z"/>
				<path class="st3" d="M753.4,295.5c-0.2-0.2-0.4-0.4-0.7-0.6c-0.3-0.1-0.8-0.3-1.6-0.5c-0.5-0.1-0.8-0.2-0.9-0.3
					c-0.2-0.1-0.3-0.2-0.4-0.3c-0.1-0.1-0.1-0.2-0.1-0.4c0-0.2,0.1-0.4,0.3-0.6c0.2-0.2,0.6-0.2,1-0.2c0.4,0,0.7,0.1,1,0.3
					c0.2,0.2,0.4,0.4,0.4,0.7l1-0.1c-0.1-0.4-0.2-0.7-0.4-1c-0.2-0.2-0.4-0.4-0.8-0.6c-0.4-0.1-0.8-0.2-1.3-0.2
					c-0.3,0-0.6,0-0.9,0.1c-0.3,0.1-0.5,0.2-0.7,0.3c-0.2,0.2-0.4,0.4-0.5,0.6c-0.1,0.2-0.2,0.5-0.2,0.8c0,0.3,0.1,0.6,0.2,0.8
					c0.2,0.3,0.4,0.4,0.7,0.6c0.3,0.1,0.8,0.3,1.6,0.5c0.6,0.1,0.9,0.3,1.1,0.4c0.2,0.1,0.3,0.3,0.3,0.6c0,0.3-0.1,0.5-0.4,0.7
					c-0.2,0.2-0.6,0.3-1.1,0.3c-0.5,0-0.9-0.1-1.1-0.3c-0.3-0.2-0.4-0.5-0.5-1l-1,0.2c0.1,0.7,0.4,1.2,0.8,1.5
					c0.4,0.3,1,0.5,1.8,0.5c0.5,0,0.9-0.1,1.3-0.3c0.4-0.2,0.7-0.4,0.9-0.7c0.2-0.3,0.3-0.6,0.3-1
					C753.7,296,753.6,295.7,753.4,295.5z"/>
			</g>
		</g>
	</g>
</g>
</svg>
